<svg width="32" height="32" viewBox="0 0 32 32" fill="none" xmlns="http://www.w3.org/2000/svg">
<g clip-path="url(#clip0_1058_948)">
<path d="M28 12C26.9 12 26 12.9 26 14V22C26 23.1 26.9 24 28 24C29.1 24 30 23.1 30 22V14C30 12.9 29.1 12 28 12ZM4 12C2.9 12 2 12.9 2 14V22C2 23.1 2.9 24 4 24C5.1 24 6 23.1 6 22V14C6 12.9 5.1 12 4 12ZM7 23C7 23.7956 7.31607 24.5587 7.87868 25.1213C8.44129 25.6839 9.20435 26 10 26V30C10 31.1 10.9 32 12 32C13.1 32 14 31.1 14 30V26H18V30C18 31.1 18.9 32 20 32C21.1 32 22 31.1 22 30V26C22.7956 26 23.5587 25.6839 24.1213 25.1213C24.6839 24.5587 25 23.7956 25 23V12H7V23ZM24.944 9.99995C24.7959 8.67619 24.3557 7.40182 23.6554 6.26879C22.955 5.13575 22.0119 4.1723 20.894 3.44795L21.894 1.44595C22.0126 1.20858 22.032 0.933843 21.9479 0.682169C21.8639 0.430495 21.6834 0.222505 21.446 0.103953C21.2086 -0.0145988 20.9339 -0.0340007 20.6822 0.0500156C20.4305 0.134032 20.2226 0.314584 20.104 0.551953L19.1 2.55995L18.84 2.45595C16.9962 1.84341 15.0038 1.84341 13.16 2.45595L12.9 2.55995L11.896 0.551953C11.7774 0.314584 11.5695 0.134032 11.3178 0.0500157C11.0661 -0.0340006 10.7914 -0.0145988 10.554 0.103953C10.3166 0.222505 10.1361 0.430495 10.0521 0.682169C9.96805 0.933843 9.98745 1.20858 10.106 1.44595L11.106 3.44795C9.98805 4.1722 9.04484 5.13562 8.34446 6.26867C7.64408 7.40173 7.20401 8.67616 7.056 9.99995V11H25V9.99995H24.944ZM13 7.99995C12.7348 8.00022 12.4803 7.89512 12.2926 7.70777C12.1049 7.52042 11.9993 7.26617 11.999 7.00095C11.9987 6.73574 12.1038 6.48128 12.2912 6.29355C12.4785 6.10583 12.7328 6.00022 12.998 5.99995H13.002C13.2672 6.00022 13.5215 6.10583 13.7088 6.29355C13.8962 6.48128 14.0013 6.73574 14.001 7.00095C14.0007 7.26617 13.8951 7.52042 13.7074 7.70777C13.5197 7.89512 13.2652 8.00022 13 7.99995ZM19 7.99995C18.7348 8.00022 18.4803 7.89512 18.2926 7.70777C18.1049 7.52042 17.9993 7.26617 17.999 7.00095C17.9987 6.73574 18.1038 6.48128 18.2912 6.29355C18.4785 6.10583 18.7328 6.00022 18.998 5.99995H19.004C19.2692 6.00022 19.5235 6.10583 19.7108 6.29355C19.8982 6.48128 20.0033 6.73574 20.003 7.00095C20.0027 7.26617 19.8971 7.52042 19.7094 7.70777C19.5217 7.89512 19.2672 8.00022 19.002 7.99995H19Z" fill="#FF8A00"/>
</g>
<defs>
<clipPath id="clip0_1058_948">
<rect width="32" height="32" fill="white"/>
</clipPath>
</defs>
</svg>
