<svg width="33" height="32" viewBox="0 0 33 32" fill="none" xmlns="http://www.w3.org/2000/svg">
<g clip-path="url(#clip0_801_37)">
<path d="M12.4544 17.3337C13.1908 17.3337 13.7878 16.7367 13.7878 16.0003C13.7878 15.2639 13.1908 14.667 12.4544 14.667C11.718 14.667 11.1211 15.2639 11.1211 16.0003C11.1211 16.7367 11.718 17.3337 12.4544 17.3337Z" stroke="white" stroke-width="2.36364" stroke-linecap="round" stroke-linejoin="round"/>
<path d="M20.4544 17.3337C21.1908 17.3337 21.7878 16.7367 21.7878 16.0003C21.7878 15.2639 21.1908 14.667 20.4544 14.667C19.718 14.667 19.1211 15.2639 19.1211 16.0003C19.1211 16.7367 19.718 17.3337 20.4544 17.3337Z" stroke="white" stroke-width="2.36364" stroke-linecap="round" stroke-linejoin="round"/>
<path d="M10.4551 10C15.1217 8.66667 17.7884 8.66667 22.4551 10" stroke="white" stroke-width="2.36364" stroke-linecap="round" stroke-linejoin="round"/>
<path d="M9.78906 22C14.4557 23.3333 18.4557 23.3333 23.1224 22" stroke="white" stroke-width="2.36364" stroke-linecap="round" stroke-linejoin="round"/>
<path d="M21.1211 22.6663C21.1211 23.9997 23.1211 26.6663 23.7878 26.6663C25.7878 26.6663 27.5651 24.4437 28.4544 22.6663C29.3438 20.4437 29.1211 14.889 26.4544 7.33301C24.5118 5.97967 22.4544 5.54634 20.4544 5.33301L19.1211 8.66634" stroke="white" stroke-width="2.36364" stroke-linecap="round" stroke-linejoin="round"/>
<path d="M11.7886 22.6663C11.7886 23.9997 9.98056 26.6663 9.34589 26.6663C7.44056 26.6663 5.74856 24.4437 4.90189 22.6663C4.05523 20.4437 4.26723 14.889 6.80589 7.33301C8.65656 5.97967 10.5152 5.54634 12.4552 5.33301L13.7886 8.66634" stroke="white" stroke-width="2.36364" stroke-linecap="round" stroke-linejoin="round"/>
</g>
<defs>
<clipPath id="clip0_801_37">
<rect width="32" height="32" fill="white" transform="translate(0.455078)"/>
</clipPath>
</defs>
</svg>
