<svg width="208" height="48" viewBox="0 0 208 48" fill="none" xmlns="http://www.w3.org/2000/svg">
<path d="M2.92751 11.4331C3.36161 7.39137 3.57866 5.37053 4.50595 3.84489C5.32276 2.50101 6.51754 1.42768 7.94096 0.759059C9.55691 0 11.5894 0 15.6543 0H194.752C199.685 0 202.152 0 203.954 0.99218C205.536 1.86361 206.777 3.24505 207.475 4.91163C208.269 6.80913 208.005 9.26173 207.478 14.1669L205.072 36.5669C204.638 40.6086 204.421 42.6295 203.494 44.1551C202.677 45.499 201.482 46.5723 200.059 47.2409C198.443 48 196.411 48 192.346 48H13.2484C8.315 48 5.8483 48 4.04644 47.0078C2.46388 46.1364 1.22287 44.7549 0.525425 43.0884C-0.268657 41.1909 -0.00523317 38.7383 0.521615 33.8331L2.92751 11.4331Z" fill="url(#paint0_radial_1084_246)"/>
<defs>
<radialGradient id="paint0_radial_1084_246" cx="0" cy="0" r="1" gradientUnits="userSpaceOnUse" gradientTransform="translate(104 24) rotate(90) scale(24 105)">
<stop stop-color="#FF8A00"/>
<stop offset="1" stop-color="#FF7E06"/>
</radialGradient>
</defs>
</svg>
