<svg width="656" height="80" viewBox="0 0 656 80" fill="none" xmlns="http://www.w3.org/2000/svg">
<path d="M26.6507 7.79824C27.8477 4.97865 28.4462 3.56885 29.4149 2.53367C30.2711 1.61879 31.3302 0.917814 32.5069 0.487218C33.8383 0 35.3699 0 38.433 0H640.661C647.121 0 650.351 0 652.375 1.35995C654.144 2.54877 655.366 4.39442 655.769 6.48742C656.23 8.8817 654.968 11.8551 652.443 17.8018L629.349 72.2018C628.153 75.0214 627.554 76.4311 626.585 77.4663C625.729 78.3812 624.67 79.0822 623.493 79.5128C622.162 80 620.63 80 617.567 80H15.3394C8.87905 80 5.64887 80 3.6251 78.6401C1.85598 77.4512 0.63442 75.6056 0.231422 73.5126C-0.229584 71.1183 1.03265 68.1449 3.55711 62.1982L26.6507 7.79824Z" fill="url(#paint0_radial_1063_202)"/>
<defs>
<radialGradient id="paint0_radial_1063_202" cx="0" cy="0" r="1" gradientUnits="userSpaceOnUse" gradientTransform="translate(328 40) rotate(90) scale(40 332)">
<stop stop-color="#FF8A00"/>
<stop offset="1" stop-color="#FF7E06"/>
</radialGradient>
</defs>
</svg>
