<svg width="216" height="64" viewBox="0 0 216 64" fill="none" xmlns="http://www.w3.org/2000/svg">
<path d="M9.78041 10.8606C10.1126 8.9538 10.3485 7.6053 10.6144 6.55375C10.8757 5.5205 11.1417 4.88011 11.4827 4.37297C12.1634 3.36071 13.1152 2.56041 14.2292 2.06358C14.7874 1.81467 15.4639 1.66253 16.5267 1.58247C17.6083 1.50099 18.9773 1.5 20.9127 1.5H201.777C204.421 1.5 206.306 1.50133 207.767 1.62805C209.213 1.75358 210.079 1.99237 210.732 2.36884C212.055 3.1312 213.066 4.33458 213.591 5.76813C213.849 6.47604 213.936 7.37065 213.811 8.81706C213.686 10.2772 213.363 12.1354 212.91 14.7394L206.22 53.1394C205.887 55.0462 205.651 56.3947 205.386 57.4462C205.124 58.4795 204.858 59.1199 204.517 59.627C203.837 60.6393 202.885 61.4396 201.771 61.9364C201.213 62.1853 200.536 62.3375 199.473 62.4175C198.392 62.499 197.023 62.5 195.087 62.5H14.2228C11.5795 62.5 9.6936 62.4987 8.2335 62.3719C6.78717 62.2464 5.92069 62.0076 5.26769 61.6312C3.94538 60.8688 2.93352 59.6654 2.40943 58.2319C2.15062 57.524 2.06409 56.6293 2.18866 55.1829C2.31441 53.7228 2.63679 51.8646 3.09046 49.2606L9.78041 10.8606Z" fill="#080808" fill-opacity="0.2" stroke="url(#paint0_radial_1058_952)" stroke-width="3"/>
<defs>
<radialGradient id="paint0_radial_1058_952" cx="0" cy="0" r="1" gradientUnits="userSpaceOnUse" gradientTransform="translate(108 32) rotate(90) scale(32 109)">
<stop stop-color="#FF8A00"/>
<stop offset="1" stop-color="#FF7E06"/>
</radialGradient>
</defs>
</svg>
