<svg width="20" height="24" viewBox="0 0 20 24" fill="none" xmlns="http://www.w3.org/2000/svg">
<path fill-rule="evenodd" clip-rule="evenodd" d="M9.50799 0.560378C8.92068 0.686045 8.68499 0.86409 7.97607 1.71723C7.64901 2.11085 7.34576 2.47401 7.30219 2.52424C7.25862 2.57447 6.97026 2.9238 6.66139 3.30053C6.35247 3.67725 6.05218 4.03686 5.99404 4.09964C5.93591 4.16243 5.64054 4.52203 5.33774 4.89876C5.03491 5.27549 4.75456 5.616 4.71471 5.65546C4.67485 5.69491 4.48569 5.91752 4.2943 6.15009C4.10291 6.3827 3.78972 6.75879 3.59833 6.98583C3.40694 7.21282 3.15639 7.51644 3.04156 7.66046C2.80483 7.95742 2.32141 8.54264 2.06005 8.84868C1.12815 9.94 0.271553 11.0154 0.179962 11.209C0.0187759 11.5497 -0.0380096 11.9556 0.0253696 12.3137C0.113386 12.8112 0.139643 12.8503 1.42542 14.4027C1.74014 14.7826 2.21516 15.358 2.48112 15.6813C3.07654 16.4051 3.31081 16.6835 3.45311 16.8361C3.51357 16.9009 3.6174 17.0259 3.68384 17.1138C3.86846 17.358 4.57287 18.218 4.69383 18.3468C4.7528 18.4095 4.99296 18.6972 5.2275 18.986C5.46204 19.2749 5.75207 19.6242 5.87197 19.7623C5.99186 19.9005 6.22529 20.1779 6.3907 20.3788C8.36177 22.7731 8.52922 22.9662 8.77179 23.1247C9.43291 23.5567 10.2558 23.6199 10.958 23.2927C11.3014 23.1327 11.5067 22.944 12.0257 22.3117C12.7003 21.4899 12.8914 21.2592 13.0033 21.1322C13.2625 20.8381 14.0379 19.8836 14.0379 19.8587C14.0379 19.8432 14.1337 19.7294 14.2507 19.6057C14.3679 19.4819 14.7049 19.0813 14.9998 18.7153C15.2947 18.3494 15.5603 18.0294 15.59 18.0043C15.6197 17.9792 15.94 17.599 16.3018 17.1595C16.9166 16.4127 17.7451 15.4129 18.4441 14.5742C18.6092 14.3762 18.9178 13.9984 19.1299 13.7347C19.342 13.471 19.5568 13.2112 19.6071 13.1573C19.6575 13.1035 19.7665 12.9186 19.8493 12.7464C19.9864 12.4616 20 12.3941 20 11.9995C20 11.6035 19.9866 11.5378 19.8466 11.246C19.7623 11.0702 19.6249 10.8545 19.5414 10.7666C19.4578 10.6787 19.2488 10.4265 19.0768 10.2063C18.9047 9.98603 18.6796 9.70862 18.5765 9.58985C18.2365 9.19829 18.0826 9.01481 17.6101 8.43771C17.3531 8.12377 17.0887 7.80526 17.0225 7.72992C16.9563 7.65457 16.6179 7.24383 16.2704 6.8171C15.9229 6.39042 15.6049 6.01026 15.5637 5.97232C15.5224 5.93442 15.2419 5.59513 14.9402 5.21841C14.6385 4.84168 14.3314 4.4718 14.2577 4.39646C14.184 4.32111 13.9806 4.07407 13.8057 3.84749C13.6308 3.62086 13.3244 3.24737 13.1248 3.0175C12.9252 2.78759 12.5323 2.31684 12.2515 1.97139C11.3779 0.896237 11.1231 0.693946 10.4713 0.557959C10.0976 0.480011 9.88084 0.480558 9.50799 0.560378ZM10.36 7.64667C10.4621 7.69435 10.658 7.88846 10.8785 8.16039C11.0735 8.40081 11.2774 8.6489 11.3317 8.71169C11.3859 8.77448 11.5161 8.92498 11.621 9.04613C11.7259 9.16728 11.9353 9.42413 12.0862 9.61693C12.2371 9.80972 12.446 10.0599 12.5504 10.1729C12.6549 10.2859 12.8132 10.4709 12.9021 10.5839C12.9911 10.6969 13.2331 11.0002 13.4399 11.2579C13.8401 11.7567 13.9198 11.9432 13.8456 12.2076C13.8037 12.3568 13.1054 13.2774 12.5183 13.9574C12.3716 14.1273 12.0532 14.5086 11.8108 14.8047C11.5683 15.1009 11.3317 15.3871 11.2848 15.4408C11.238 15.4945 11.0415 15.7276 10.8482 15.9588C10.3817 16.5167 10.1222 16.6243 9.69966 16.4351C9.50325 16.3472 9.19276 16.0142 8.38906 15.0298C7.8662 14.3894 6.58613 12.8357 6.36815 12.5769C6.15792 12.3272 6.10735 12.2262 6.10545 12.052C6.10359 11.8783 6.21823 11.6124 6.33061 11.5298C6.37218 11.4993 6.58005 11.2586 6.7926 10.9949C7.30849 10.3548 7.63008 9.96722 7.79057 9.79219C7.86337 9.71278 7.97821 9.57588 8.04572 9.48797C8.15271 9.34865 8.82635 8.53013 9.09532 8.21263C9.37255 7.88536 9.52808 7.72974 9.65326 7.6543C9.82772 7.54918 10.144 7.5458 10.36 7.64667Z" fill="#FFB400"/>
</svg>
