<svg width="45" height="44" viewBox="0 0 45 44" fill="none" xmlns="http://www.w3.org/2000/svg">
<g clip-path="url(#clip0_801_403)">
<path d="M11.6631 27.5C14.6894 27.5 17.1427 25.0376 17.1427 22C17.1427 18.9624 14.6894 16.5 11.6631 16.5C8.63687 16.5 6.18359 18.9624 6.18359 22C6.18359 25.0376 8.63687 27.5 11.6631 27.5Z" stroke="white" stroke-width="2" stroke-linecap="round" stroke-linejoin="round"/>
<path d="M33.5811 16.5C36.6074 16.5 39.0607 14.0376 39.0607 11C39.0607 7.96243 36.6074 5.5 33.5811 5.5C30.5548 5.5 28.1016 7.96243 28.1016 11C28.1016 14.0376 30.5548 16.5 33.5811 16.5Z" stroke="white" stroke-width="2" stroke-linecap="round" stroke-linejoin="round"/>
<path d="M33.5811 38.5C36.6074 38.5 39.0607 36.0376 39.0607 33C39.0607 29.9624 36.6074 27.5 33.5811 27.5C30.5548 27.5 28.1016 29.9624 28.1016 33C28.1016 36.0376 30.5548 38.5 33.5811 38.5Z" stroke="white" stroke-width="2" stroke-linecap="round" stroke-linejoin="round"/>
<path d="M16.5938 19.6161L28.6488 13.3828" stroke="white" stroke-width="2" stroke-linecap="round" stroke-linejoin="round"/>
<path d="M16.5938 24.3828L28.6488 30.6161" stroke="white" stroke-width="2" stroke-linecap="round" stroke-linejoin="round"/>
</g>
<defs>
<clipPath id="clip0_801_403">
<rect x="0.703125" width="43.8364" height="44" rx="10" fill="white"/>
</clipPath>
</defs>
</svg>
